<svg width="48" height="48" viewBox="0 0 48 48" fill="none" xmlns="http://www.w3.org/2000/svg">
<path d="M24 0C28.1777 0 37.0165 0 42.5083 5.49175C48 10.9835 48 19.8223 48 24C48 28.1777 48 37.0165 42.5083 42.5083C37.0165 48 28.1777 48 24 48C19.8223 48 10.9835 48 5.49175 42.5083C0 37.0165 0 28.1777 0 24C0 19.8223 0 10.9835 5.49175 5.49175C10.9835 0 19.8223 0 24 0Z" fill="#010101"/>
<path d="M33.2955 14.1077C35.2562 14.0918 36.8375 12.5028 36.8296 10.5341C36.8296 8.57343 35.2247 6.98431 33.264 7.00012C31.2954 7.00803 29.7141 8.59715 29.722 10.5658C29.7299 12.5265 31.3348 14.1156 33.2955 14.1077Z" fill="white"/>
<path d="M33.0505 32.8845C31.0819 32.8845 29.5007 34.4815 29.5086 36.4501C29.5086 38.4109 31.1135 40.0079 33.0821 40C35.0428 39.9842 36.6241 38.395 36.6162 36.4265C36.6162 34.4658 35.0191 32.8845 33.0505 32.8845Z" fill="white"/>
<path d="M10.5419 20.053C8.57333 20.053 6.99213 21.6501 7.00003 23.6265C7.00003 25.5872 8.60496 27.1843 10.5736 27.1764C12.5342 27.1606 14.1155 25.5636 14.1076 23.6029C14.1076 21.6343 12.5106 20.0451 10.5419 20.053Z" fill="white"/>
<path d="M20.1952 31.4299L22.9149 26.7178C23.5474 25.777 23.919 24.6385 23.9111 23.4052C23.9111 22.749 23.8004 22.1244 23.6028 21.5315C23.4842 21.1678 23.326 20.8199 23.1363 20.4878L20.1952 15.4122L16.9221 9.74352C15.167 10.7555 13.989 12.6608 13.9969 14.8508C13.9969 15.8233 14.242 16.7404 14.661 17.5468L14.7875 17.7602L14.7796 17.7681L15.1196 18.3532L16.7719 21.2152L17.7128 22.8518L18.0369 23.421L17.7048 24.0061L14.7717 29.0896L14.7796 29.0975L14.6531 29.311C14.2341 30.1175 13.989 31.0345 13.989 32.0069C13.9811 34.1969 15.1591 36.1023 16.9142 37.1143L20.1952 31.4299Z" fill="white"/>
<path d="M24.2826 19.8316C24.4882 20.1874 24.7412 20.5195 25.0179 20.8278C25.0495 20.8595 25.0733 20.8911 25.1049 20.9227C25.1365 20.9543 25.1681 20.986 25.1998 21.0175C25.5556 21.3812 25.9588 21.6975 26.4173 21.9663C27.4767 22.583 28.6468 22.836 29.7853 22.7569H41.7708C41.7708 20.725 40.7035 18.7564 38.8061 17.6733C37.9601 17.1911 37.051 16.938 36.1338 16.8985H35.8887V16.8827H29.3505L29.0263 16.3135L28.2199 14.9141L26.4331 11.8149L26.0932 11.2299L26.0853 11.2377L25.9588 11.0243C25.4685 10.2574 24.7966 9.58541 23.9585 9.09523C22.069 7.99629 19.8315 8.05954 18.0764 9.07151L21.476 14.9615L24.2826 19.8316Z" fill="white"/>
<path d="M30.0224 24.0535H29.3505C28.9709 24.0535 28.5915 24.093 28.212 24.172C27.6032 24.2906 27.0023 24.512 26.4331 24.8362C25.3658 25.445 24.5673 26.3383 24.0692 27.3582L21.3495 32.0703L18.0764 37.7389C19.8315 38.7508 22.069 38.8141 23.9585 37.7152C24.7966 37.2249 25.4764 36.5608 25.9588 35.7939L26.0853 35.5805L26.0932 35.5884L28.1408 32.0386L29.3663 29.9198H35.8887V29.904H36.1338C37.0431 29.8644 37.9601 29.6193 38.8061 29.1292C40.7035 28.0461 41.7629 26.0774 41.7708 24.0456H30.0224V24.0535Z" fill="white"/>
</svg>
